PathFileType  4	(X/Y/Z) C:\Users\antoi\Documents\MyRepositories\mobilecap\ResultsAnalysis
DataRate	CameraRate	NumFrames	NumMarkers	Units	OrigDataRate	OrigDataStartFrame	OrigNumFrames
100.0	100.0	4	51	mm	100.0	1	371
Frame#	Time	r_knee			r_shank_antsup			r_ankle			r_calc			r_5meta			r_toe			L_knee			L_shank_antsup			L_ankle			L_calc			L_5meta			L_toe			r_sh2			r_sh3			r_sh4			L_sh2			L_sh3			r_thigh1			r_thigh2			r_thigh3			r_thigh4			r_thigh5			L_thigh1			L_thigh2			L_thigh3			L_thigh4			r.ASIS			r.PSIS			L.ASIS			L.PSIS			C7			R_Shoulder			L_Shoulder			R_Sternum			L_Sternum			R_humerus			R_elbow_med			R_elbow_lat			R_forearm			R_wrist_radius			R_wrist_ulna			L_humerus			L_elbow_med			L_elbow_lat			L_forearm			L_wrist_radius			L_wrist_ulna			R_HJC			L_HJC			R_HJC_reg			L_HJC_reg			
		X1	Y1	Z1	X2	Y2	Z2	X3	Y3	Z3	X4	Y4	Z4	X5	Y5	Z5	X6	Y6	Z6	X7	Y7	Z7	X8	Y8	Z8	X9	Y9	Z9	X10	Y10	Z10	X11	Y11	Z11	X12	Y12	Z12	X13	Y13	Z13	X14	Y14	Z14	X15	Y15	Z15	X16	Y16	Z16	X17	Y17	Z17	X18	Y18	Z18	X19	Y19	Z19	X20	Y20	Z20	X21	Y21	Z21	X22	Y22	Z22	X23	Y23	Z23	X24	Y24	Z24	X25	Y25	Z25	X26	Y26	Z26	X27	Y27	Z27	X28	Y28	Z28	X29	Y29	Z29	X30	Y30	Z30	X31	Y31	Z31	X32	Y32	Z32	X33	Y33	Z33	X34	Y34	Z34	X35	Y35	Z35	X36	Y36	Z36	X37	Y37	Z37	X38	Y38	Z38	X39	Y39	Z39	X40	Y40	Z40	X41	Y41	Z41	X42	Y42	Z42	X43	Y43	Z43	X44	Y44	Z44	X45	Y45	Z45	X46	Y46	Z46	X47	Y47	Z47	X48	Y48	Z48	X49	Y49	Z49	X50	Y50	Z50	X51	Y51	Z51	

1	0.00000000	-1222.11365	780.11082	-422.00130	-1187.48829	672.88102	-434.27368	-1256.03407	396.79000	-462.03723	-1300.50219	358.64387	-516.30068	-1142.89552	348.49644	-422.76935	-1105.05334	366.99164	-464.78137	-1215.37291	781.43147	-754.46162	-1180.99416	683.06806	-712.67340	-1263.06616	396.63144	-731.49116	-1303.57214	366.90796	-695.28619	-1141.32080	346.72581	-745.99261	-1102.58399	367.49032	-693.48474	-1198.52298	560.57321	-450.11191	-1246.57969	669.80205	-387.53017	-1271.01501	561.80530	-411.38031	-1234.63232	704.22369	-781.46252	-1246.93738	583.59100	-789.13916	-1124.25685	1079.32202	-434.27151	-1123.18834	970.70100	-425.80344	-1169.26002	946.20470	-384.46609	-1227.36634	1077.30405	-392.46625	-1223.25159	963.40029	-383.77608	-1123.92019	1067.60474	-756.53797	-1122.73901	930.15930	-757.28827	-1229.74989	1071.80724	-797.55132	-1228.12281	930.97881	-788.70879	-1101.91116	1238.35361	-464.87317	-1276.66142	1305.09778	-541.21642	-1088.10522	1236.75891	-709.55098	-1273.74075	1305.61987	-658.37770	-1275.77710	1743.74404	-595.75927	-1222.75818	1711.39879	-439.25722	-1210.58960	1720.13318	-751.90704	-1150.62707	1701.85094	-571.06587	-1147.46629	1698.28225	-614.36946	-1191.05556	1584.28760	-377.22701	-1243.24361	1383.05484	-431.53203	-1215.94912	1389.52002	-360.15405	-1151.86111	1279.87721	-347.87154	-1110.43193	1182.80676	-356.22609	-1139.95487	1173.25060	-334.14736	-1172.49453	1569.28539	-809.86393	-1234.32704	1380.90111	-749.64201	-1205.61426	1384.85119	-827.15418	-1147.66825	1304.34780	-841.65238	-1099.61833	1181.23644	-825.54329	-1124.13029	1172.47437	-845.65422	-1200.18902	1179.46684	-495.46427	-1186.21683	1174.46609	-684.25969	-1179.50068	1177.93359	-501.38196	-1175.46981	1178.65413	-663.07776	
2	0.01000000	-1222.14602	780.08900	-421.96468	-1187.49075	672.86992	-434.31389	-1256.01187	396.74382	-462.02521	-1300.41322	358.51421	-516.06840	-1142.90765	348.48134	-422.79288	-1105.06192	366.97422	-464.79043	-1215.40248	781.42170	-754.48181	-1181.01396	683.07328	-712.69006	-1263.04557	396.62971	-731.53727	-1303.57580	366.89230	-695.28767	-1141.24484	346.62938	-746.07764	-1102.49900	367.50090	-693.49464	-1198.59664	560.53510	-450.12287	-1246.66137	669.82316	-387.44723	-1270.99551	561.56295	-411.44921	-1234.62043	704.16972	-781.44273	-1246.93578	583.59793	-789.15412	-1124.36669	1079.28062	-434.29396	-1123.19452	970.69069	-425.81084	-1169.35693	946.19931	-384.52163	-1227.40165	1077.36309	-392.37152	-1223.30756	963.36056	-383.82342	-1123.94401	1067.60246	-756.59676	-1122.77543	930.15657	-757.29015	-1229.80728	1071.82747	-797.59960	-1228.15470	930.97244	-788.68626	-1101.98762	1238.34157	-464.90156	-1276.74091	1305.09962	-541.17467	-1088.15794	1236.75258	-709.58373	-1273.80053	1305.60789	-658.36884	-1275.78854	1743.78531	-595.73490	-1222.75942	1711.42108	-439.25625	-1210.53327	1720.13657	-752.03543	-1150.63483	1701.86352	-571.05593	-1147.42154	1698.41723	-614.27591	-1191.07866	1584.33216	-377.14988	-1243.15095	1383.11825	-431.61962	-1216.01311	1389.54458	-360.17855	-1152.00404	1279.90885	-347.84639	-1110.58482	1182.86223	-356.11186	-1140.15092	1173.26890	-334.09613	-1172.57736	1569.24142	-810.02286	-1234.95372	1380.81639	-750.06785	-1205.66591	1384.86076	-827.16055	-1147.71274	1304.35368	-841.63662	-1099.77124	1181.33785	-825.60878	-1124.24993	1172.50037	-845.73106	-1200.24967	1179.45329	-495.47193	-1186.29182	1174.46506	-684.26876	-1179.58579	1177.94088	-501.41732	-1175.52879	1178.64216	-663.11628	
3	0.02000000	-1222.19795	780.09539	-421.92926	-1187.49913	672.85295	-434.34074	-1256.01436	396.72856	-462.01192	-1300.47425	358.47135	-516.10471	-1142.90921	348.45200	-422.79880	-1105.06035	366.95670	-464.78834	-1215.42837	781.41277	-754.48888	-1181.03478	683.07028	-712.69816	-1263.04713	396.61356	-731.53731	-1303.58399	366.87622	-695.28337	-1141.20356	346.58720	-746.10948	-1102.46369	367.46614	-693.50062	-1198.65158	560.50096	-450.12422	-1246.72757	669.78899	-387.43851	-1271.22633	562.33806	-411.45031	-1234.63739	704.15048	-781.43096	-1246.94178	583.59668	-789.15655	-1124.43886	1079.26395	-434.29360	-1123.21731	970.63609	-425.83673	-1169.43996	946.21783	-384.49519	-1227.47607	1077.30019	-392.41483	-1223.35967	963.31614	-383.85383	-1124.00328	1067.59885	-756.52400	-1122.80757	930.15365	-757.28584	-1229.89921	1071.75990	-797.51715	-1228.20230	930.96437	-788.67305	-1102.04749	1238.30895	-464.92087	-1276.80309	1305.10312	-541.15916	-1088.23937	1236.75474	-709.60612	-1273.86375	1305.60534	-658.35149	-1275.80295	1743.82922	-595.70699	-1222.75503	1711.43244	-439.25322	-1210.48419	1720.16771	-752.07693	-1150.65024	1701.85611	-571.04787	-1147.40519	1698.47158	-614.24806	-1191.12547	1584.33936	-377.15403	-1243.22241	1383.11934	-431.62020	-1216.08058	1389.52951	-360.17905	-1152.17635	1279.92842	-347.82145	-1110.75158	1182.82436	-356.12765	-1140.31041	1173.24573	-334.12023	-1172.62730	1569.23198	-810.09016	-1235.78973	1380.72152	-750.75942	-1205.73250	1384.88976	-827.20369	-1147.75496	1304.32225	-841.67188	-1099.93175	1181.50376	-825.77629	-1124.35873	1172.52105	-845.81128	-1200.31314	1179.43488	-495.48400	-1186.37703	1174.46919	-684.28303	-1179.66666	1177.94554	-501.43403	-1175.61101	1178.63850	-663.13415	
4	0.03000000	-1222.25004	780.09708	-421.90950	-1187.53255	672.84018	-434.33492	-1256.04526	396.67861	-462.05003	-1300.54113	358.50516	-516.23566	-1142.90811	348.40298	-422.79451	-1105.06068	366.93251	-464.76851	-1215.45651	781.41297	-754.45671	-1181.04812	683.07316	-712.69714	-1263.05447	396.61053	-731.52624	-1303.57546	366.87596	-695.26286	-1141.20675	346.59600	-746.10167	-1102.46903	367.42834	-693.47759	-1198.63484	560.47542	-450.11308	-1246.78386	669.73807	-387.48256	-1271.52582	563.49417	-411.39336	-1234.68474	704.17412	-781.43748	-1246.95023	583.59427	-789.14801	-1124.47948	1079.27571	-434.28273	-1123.25796	970.56413	-425.85967	-1169.49475	946.22485	-384.45057	-1227.56432	1077.21979	-392.47000	-1223.39392	963.29173	-383.84457	-1124.07986	1067.61290	-756.34459	-1122.83969	930.16899	-757.25952	-1230.02041	1071.67987	-797.38880	-1228.23995	930.98111	-788.69507	-1102.10946	1238.27336	-464.90381	-1276.85517	1305.10526	-541.14426	-1088.36511	1236.76587	-709.60726	-1273.93141	1305.61626	-658.31804	-1275.82871	1743.87518	-595.64849	-1222.77181	1711.44116	-439.24183	-1210.46259	1720.21666	-752.01720	-1150.66923	1701.83570	-571.04463	-1147.39250	1698.50145	-614.26462	-1191.17518	1584.31158	-377.19583	-1243.45345	1383.06935	-431.52144	-1216.16257	1389.52339	-360.14099	-1152.30949	1279.92506	-347.81832	-1110.94677	1182.78280	-356.13435	-1140.48473	1173.29746	-334.06732	-1172.64111	1569.26557	-810.09060	-1236.42554	1380.63155	-751.24991	-1205.79069	1384.93137	-827.23186	-1147.81064	1304.29300	-841.69512	-1100.07494	1181.60448	-825.88489	-1124.48206	1172.52827	-845.92227	-1200.38964	1179.42048	-495.47872	-1186.48082	1174.47924	-684.28040	-1179.75664	1177.93649	-501.41510	-1175.72158	1178.64172	-663.12513	
